<?xml version="1.0" encoding="UTF-8"?><svg id="Layer_2" xmlns="http://www.w3.org/2000/svg" xmlns:xlink="http://www.w3.org/1999/xlink" viewBox="0 0 640.89562 335.59957"><defs><style>.cls-1{fill:none;}.cls-2{clip-path:url(#clippath);}</style><clipPath id="clippath"><ellipse class="cls-1" cx="320.44781" cy="167.79979" rx="320.44781" ry="167.79979"/></clipPath></defs><g class="cls-2"><path d="M320.7961,16.42114c171.39999,0,303.20001,72.2,303.20001,151.5s-131.90002,151.5-303.20001,151.5c-171.39999,0-303.20001-72.20001-303.20001-151.5S149.4961,16.42114,320.7961,16.42114m0-16.8C144.09611-.37886,.7961,74.92114,.7961,167.92114s143.3,168.29999,320,168.29999,320-75.29999,320-168.29999S497.49611-.37886,320.7961-.37886Zm-101.8,154.8c-7.89999,40.5-35.8,36.29999-70.09999,36.29999l13.7-70.60001c38,0,63.8-4.10001,56.40001,34.3l-.00002,.00002Zm-120.8,107.79999h36.7l8.7-44.79999c41.09999,0,66.59999,3,90.2-19.10001,26.10001-24,32.89999-66.7,14.3-88.10001-9.7-11.2-25.3-16.7-46.5-16.7h-70.7l-32.7,168.7ZM283.89611,48.62112h36.5l-8.70001,44.8c31.5,0,60.70001-2.3,74.80002,10.7,14.79999,13.60001,7.70001,31-8.29999,113.10001h-37c15.39999-79.39999,18.29999-86,12.70001-92-5.39999-5.8-17.70001-4.60001-47.39999-4.60001l-18.79999,96.60001h-36.5l32.70001-168.60001h-.00006Zm221.89999,105.80002c-8,41.10001-36.70001,36.29999-70.10001,36.29999l13.70001-70.60001c38.20001,0,63.80002-4.10001,56.39999,34.3v.00002Zm-120.79999,107.79999h36.79999l8.70001-44.79999c43.20001,0,67.10001,2.5,90.20001-19.10001,26.09998-24,32.90002-66.7,14.29999-88.10001-9.70001-11.2-25.29999-16.7-46.5-16.7h-70.70001l-32.79999,168.7Z"/></g></svg>